<svg id="visual" viewBox="0 0 780 600" width="780" height="600" xmlns="http://www.w3.org/2000/svg" xmlns:xlink="http://www.w3.org/1999/xlink" version="1.1"><path d="M0 396L111 356L223 385L334 419L446 368L557 413L669 376L780 438L780 601L669 601L557 601L446 601L334 601L223 601L111 601L0 601Z" fill="#64ffda"></path><path d="M0 413L111 454L223 427L334 468L446 447L557 448L669 472L780 471L780 601L669 601L557 601L446 601L334 601L223 601L111 601L0 601Z" fill="#52e4c1"></path><path d="M0 505L111 450L223 438L334 491L446 451L557 491L669 507L780 482L780 601L669 601L557 601L446 601L334 601L223 601L111 601L0 601Z" fill="#40caa9"></path><path d="M0 522L111 507L223 490L334 537L446 515L557 510L669 515L780 515L780 601L669 601L557 601L446 601L334 601L223 601L111 601L0 601Z" fill="#2db192"></path><path d="M0 551L111 534L223 538L334 565L446 558L557 537L669 558L780 552L780 601L669 601L557 601L446 601L334 601L223 601L111 601L0 601Z" fill="#18987b"></path></svg>