<svg id="visual" viewBox="0 0 1000 247" width="1000" height="247" xmlns="http://www.w3.org/2000/svg" xmlns:xlink="http://www.w3.org/1999/xlink" version="1.1"><path d="M0 367L83 354L167 421L250 403L333 434L417 382L500 382L583 419L667 405L750 355L833 395L917 380L1000 355L1000 601L917 601L833 601L750 601L667 601L583 601L500 601L417 601L333 601L250 601L167 601L83 601L0 601Z" fill="#64ffda"></path><path d="M0 410L83 456L167 403L250 418L333 468L417 466L500 408L583 470L667 435L750 401L833 456L917 429L1000 400L1000 601L917 601L833 601L750 601L667 601L583 601L500 601L417 601L333 601L250 601L167 601L83 601L0 601Z" fill="#56eac6"></path><path d="M0 442L83 441L167 489L250 449L333 493L417 450L500 468L583 475L667 425L750 443L833 433L917 496L1000 466L1000 601L917 601L833 601L750 601L667 601L583 601L500 601L417 601L333 601L250 601L167 601L83 601L0 601Z" fill="#47d4b3"></path><path d="M0 509L83 482L167 475L250 464L333 512L417 477L500 468L583 486L667 483L750 508L833 518L917 464L1000 465L1000 601L917 601L833 601L750 601L667 601L583 601L500 601L417 601L333 601L250 601L167 601L83 601L0 601Z" fill="#39c0a0"></path><path d="M0 531L83 506L167 521L250 514L333 517L417 546L500 512L583 510L667 505L750 508L833 547L917 506L1000 524L1000 601L917 601L833 601L750 601L667 601L583 601L500 601L417 601L333 601L250 601L167 601L83 601L0 601Z" fill="#29ac8d"></path><path d="M0 573L83 543L167 571L250 554L333 564L417 542L500 568L583 545L667 541L750 578L833 537L917 543L1000 541L1000 601L917 601L833 601L750 601L667 601L583 601L500 601L417 601L333 601L250 601L167 601L83 601L0 601Z" fill="#18987b"></path></svg>