<svg id="visual" viewBox="0 0 490 600" width="490" height="600" xmlns="http://www.w3.org/2000/svg" xmlns:xlink="http://www.w3.org/1999/xlink" version="1.1"><path d="M0 421L70 382L140 435L210 385L280 424L350 421L420 366L490 426L490 601L420 601L350 601L280 601L210 601L140 601L70 601L0 601Z" fill="#64ffda"></path><path d="M0 418L70 470L140 442L210 418L280 467L350 441L420 431L490 410L490 601L420 601L350 601L280 601L210 601L140 601L70 601L0 601Z" fill="#52e4c1"></path><path d="M0 498L70 452L140 470L210 446L280 498L350 487L420 445L490 488L490 601L420 601L350 601L280 601L210 601L140 601L70 601L0 601Z" fill="#40caa9"></path><path d="M0 509L70 536L140 536L210 536L280 487L350 491L420 512L490 497L490 601L420 601L350 601L280 601L210 601L140 601L70 601L0 601Z" fill="#2db192"></path><path d="M0 564L70 534L140 563L210 531L280 566L350 569L420 543L490 549L490 601L420 601L350 601L280 601L210 601L140 601L70 601L0 601Z" fill="#18987b"></path></svg>