<svg xmlns="http://www.w3.org/2000/svg" xmlns:xlink="http://www.w3.org/1999/xlink" id="visual" viewBox="0 0 1000 600" width="1000" height="600" version="1.1"><path d="M 0 364 L 125 390 L 250 379 L 375 448 L 500 383 L 625 403 L 750 341 L 875 437 L 1000 370 L 1000 601 L 875 601 L 750 601 L 625 601 L 500 601 L 375 601 L 250 601 L 125 601 L 0 601 Z" fill="#64ffda"/><path transform="matrix(1,-0.1,0.1,1,-33.5,36.1)" d="M 0 427 L 125 451 L 250 448 L 375 393 L 500 426 L 625 456 L 750 467 L 875 402 L 1000 454 L 1000 601 L 875 601 L 750 601 L 625 601 L 500 601 L 375 601 L 250 601 L 125 601 L 0 601 Z" fill="#52e4c1"/><path d="M 0 462 L 125 467 L 250 458 L 375 514 L 500 505 L 625 448 L 750 429 L 875 517 L 1000 452 L 1000 601 L 875 601 L 750 601 L 625 601 L 500 601 L 375 601 L 250 601 L 125 601 L 0 601 Z" fill="#40caa9"/><path d="M 0 485 L 125 486 L 250 529 L 375 495 L 500 512 L 625 524 L 750 477 L 875 521 L 1000 542 L 1000 601 L 875 601 L 750 601 L 625 601 L 500 601 L 375 601 L 250 601 L 125 601 L 0 601 Z" fill="#2db192"/><path d="M 0 560 L 125 546 L 250 526 L 375 530 L 500 522 L 625 557 L 750 565 L 875 528 L 1000 560 L 1000 601 L 875 601 L 750 601 L 625 601 L 500 601 L 375 601 L 250 601 L 125 601 L 0 601 Z" fill="#18987b"/>
    <rect x="317" y="176" width="0" height="0" fill="rgb(0, 0, 0)"/>
    <rect x="152" y="173" width="0" height="95" fill="rgb(0, 0, 0)"/>
    <polyline points="349,154 68,12" fill="rgb(0, 0, 0)"/>
    <path d="M 523 113 S 523 113 523 113 S 598 178 598 178" fill="rgb(0, 0, 0)"/>
</svg>