<svg id="visual" viewBox="0 0 480 300" width="480" height="300" xmlns="http://www.w3.org/2000/svg" xmlns:xlink="http://www.w3.org/1999/xlink" version="1.1"><path d="M0 166L48 148L96 166L144 163L192 175L240 174L288 178L336 156L384 175L432 147L480 180L480 301L432 301L384 301L336 301L288 301L240 301L192 301L144 301L96 301L48 301L0 301Z" fill="#64ffda"></path><path d="M0 201L48 194L96 178L144 200L192 175L240 169L288 201L336 184L384 181L432 180L480 167L480 301L432 301L384 301L336 301L288 301L240 301L192 301L144 301L96 301L48 301L0 301Z" fill="#52e4c1"></path><path d="M0 219L48 221L96 218L144 200L192 201L240 224L288 222L336 206L384 218L432 219L480 207L480 301L432 301L384 301L336 301L288 301L240 301L192 301L144 301L96 301L48 301L0 301Z" fill="#40caa9"></path><path d="M0 234L48 238L96 233L144 229L192 228L240 231L288 232L336 251L384 229L432 227L480 246L480 301L432 301L384 301L336 301L288 301L240 301L192 301L144 301L96 301L48 301L0 301Z" fill="#2db192"></path><path d="M0 261L48 266L96 256L144 268L192 261L240 274L288 255L336 268L384 257L432 266L480 268L480 301L432 301L384 301L336 301L288 301L240 301L192 301L144 301L96 301L48 301L0 301Z" fill="#18987b"></path></svg>